# Blender v2.82 (sub 7) OBJ File: 'Gun.blend'
# www.blender.org
mtllib Gun.mtl
o Cube
v 0.418467 2.004954 -1.520642
v 0.418467 -2.358837 -0.016559
v 0.418467 2.358837 0.016559
v 0.418467 -2.358837 1.466926
v -0.418467 2.004954 -1.520642
v -0.418467 -2.358837 -0.016559
v -0.418467 2.358837 0.016559
v -0.418467 -2.358837 1.466926
v 0.418467 0.000000 -0.741743
v -0.418467 0.000000 0.741743
v 0.418467 0.000000 0.741743
v -0.418467 0.000000 -0.741743
v -0.418467 1.179419 0.379151
v 0.418467 1.204464 -1.320714
v 0.418467 1.179419 0.379151
v -0.418467 1.204464 -1.320714
v 0.418467 0.589709 -0.923039
v 0.418467 0.589709 0.560447
v -0.418467 0.589709 -0.923039
v -0.418467 0.589709 0.560447
v -0.418468 2.004418 -2.833622
v 0.418468 2.004418 -2.833622
v 0.418468 0.860269 -2.611619
v -0.418468 0.860269 -2.611619
v 0.418467 2.358837 -1.466926
v 0.418467 0.907055 -1.104335
v -0.418467 2.358837 -1.466926
v -0.418467 0.907055 -1.104335
v 0.418468 2.358198 -3.033018
v 0.418468 0.489486 -2.670426
v -0.418468 2.358198 -3.033018
v -0.418468 0.489486 -2.670426
v 0.418467 2.358837 -1.466926
v 0.418467 0.907055 -1.104335
v -0.418467 2.358837 -1.466926
v -0.418467 0.907055 -1.104335
v 0.418468 2.358198 -3.033018
v 0.418468 0.489486 -2.670426
v -0.418468 2.358198 -3.033018
v -0.418468 0.489486 -2.670426
v -0.418468 0.512190 -2.553417
v 0.418468 0.512190 -2.553417
v 0.418468 2.380902 -2.916009
v -0.418468 2.380902 -2.916009
v -0.418468 0.490649 -2.664434
v 0.418468 0.490649 -2.664434
v -0.418468 2.359361 -3.027026
v 0.418468 2.359361 -3.027026
v -0.418468 0.495554 -2.639152
v 0.418468 0.495554 -2.639152
v -0.418468 2.364266 -3.001744
v 0.418468 2.364266 -3.001744
vt 0.625000 0.500000
vt 0.875000 0.500000
vt 0.875000 0.750000
vt 0.625000 0.750000
vt 0.562500 0.750000
vt 0.625000 1.000000
vt 0.562500 1.000000
vt 0.562500 0.000000
vt 0.625000 0.000000
vt 0.625000 0.250000
vt 0.562500 0.250000
vt 0.125000 0.500000
vt 0.375000 0.500000
vt 0.375000 0.750000
vt 0.125000 0.750000
vt 0.562500 0.500000
vt 0.625000 0.500000
vt 0.562500 0.500000
vt 0.562500 0.500000
vt 0.625000 0.500000
vt 0.375000 0.250000
vt 0.500000 0.250000
vt 0.500000 0.500000
vt 0.500000 0.750000
vt 0.375000 0.000000
vt 0.500000 0.000000
vt 0.500000 1.000000
vt 0.375000 1.000000
vt 0.531250 0.250000
vt 0.531250 0.500000
vt 0.531250 0.750000
vt 0.531250 0.000000
vt 0.531250 1.000000
vt 0.562500 0.250000
vt 0.625000 0.250000
vt 0.625000 0.250000
vt 0.562500 0.250000
vt 0.625000 0.500000
vt 0.875000 0.500000
vt 0.562500 0.500000
vt 0.562500 0.500000
vt 0.625000 0.500000
vt 0.625000 0.250000
vt 0.562500 0.250000
vt 0.625000 0.500000
vt 0.562500 0.500000
vt 0.562500 0.250000
vt 0.625000 0.250000
vt 0.576636 0.500000
vt 0.610669 0.500000
vt 0.610669 0.250000
vt 0.576636 0.250000
vt 0.613005 0.500000
vt 0.574350 0.500000
vt 0.574350 0.250000
vt 0.613005 0.250000
vt 0.875000 0.500000
vt 0.562500 0.500000
vt 0.625000 0.500000
vt 0.562500 0.250000
vt 0.875000 0.500000
vt 0.625000 0.250000
vt 0.562500 0.250000
vt 0.625000 0.250000
vt 0.875000 0.500000
vn 0.0000 1.0000 0.0000
vn 0.0000 0.2939 0.9558
vn -1.0000 -0.0000 0.0000
vn 0.0000 -1.0000 0.0000
vn 1.0000 -0.0000 0.0000
vn 0.0000 -0.2939 -0.9558
vn 0.0000 -0.4960 -0.8683
vn 0.0000 1.0000 -0.0004
vn 0.0000 -0.9662 0.2576
vn 0.0000 0.0000 1.0000
vn 0.0000 0.9817 -0.1905
vn 0.0000 -0.9817 0.1905
vn 0.0000 -0.1905 -0.9817
usemtl Material
s off
f 25/1/1 27/2/1 7/3/1 3/4/1
f 15/5/2 3/4/2 7/6/2 13/7/2
f 13/8/3 7/9/3 27/10/3 28/11/3
f 6/12/4 2/13/4 4/14/4 8/15/4
f 26/16/5 25/1/5 3/4/5 15/5/5
f 43/17/5 42/18/5 46/19/5 48/20/5
f 6/21/6 12/22/6 9/23/6 2/13/6
f 2/13/5 9/23/5 11/24/5 4/14/5
f 8/25/3 10/26/3 12/22/3 6/21/3
f 4/14/2 11/24/2 10/27/2 8/28/2
f 19/29/7 28/11/7 26/16/7 17/30/7
f 17/30/5 26/16/5 15/5/5 18/31/5
f 20/32/3 13/8/3 28/11/3 19/29/3
f 18/31/2 15/5/2 13/7/2 20/33/2
f 11/24/2 18/31/2 20/33/2 10/27/2
f 10/26/3 20/32/3 19/29/3 12/22/3
f 9/23/5 17/30/5 18/31/5 11/24/5
f 12/22/6 19/29/6 17/30/6 9/23/6
f 32/34/5 31/35/5 44/36/5 41/37/5
f 27/2/8 25/1/8 29/38/8 31/39/8
f 26/16/9 28/11/9 32/34/9 30/40/9
f 34/41/10 33/42/10 25/1/10 26/16/10
f 35/43/10 36/44/10 28/11/10 27/10/10
f 37/45/10 38/46/10 30/40/10 29/38/10
f 40/47/10 39/48/10 31/35/10 32/34/10
f 39/48/10 35/43/10 27/10/10 31/35/10
f 36/44/10 40/47/10 32/34/10 28/11/10
f 33/42/10 37/45/10 29/38/10 25/1/10
f 38/46/10 34/41/10 26/16/10 30/40/10
f 14/49/5 1/50/5 33/42/5 34/41/5
f 5/51/3 16/52/3 36/44/3 35/43/3
f 22/53/5 23/54/5 38/46/5 37/45/5
f 24/55/3 21/56/3 39/48/3 40/47/3
f 21/56/3 5/51/3 35/43/3 39/48/3
f 16/52/3 24/55/3 40/47/3 36/44/3
f 1/50/5 22/53/5 37/45/5 33/42/5
f 23/54/5 14/49/5 34/41/5 38/46/5
f 29/38/3 30/40/3 42/18/3 43/17/3
f 30/40/11 32/34/11 41/37/11 42/18/11
f 31/39/12 29/38/12 43/17/12 44/57/12
f 48/20/3 46/19/3 50/58/3 52/59/3
f 42/18/12 41/37/12 45/60/12 46/19/12
f 44/57/11 43/17/11 48/20/11 47/61/11
f 41/37/3 44/36/3 47/62/3 45/60/3
f 49/63/13 51/64/13 52/59/13 50/58/13
f 46/19/11 45/60/11 49/63/11 50/58/11
f 47/61/12 48/20/12 52/59/12 51/65/12
f 45/60/5 47/62/5 51/64/5 49/63/5
o Cube.001
v -0.579569 2.349018 1.774415
v -0.579569 4.001399 1.649456
v -0.579569 2.349018 -10.296394
v -0.579569 4.001399 -11.043101
v 0.579569 2.349018 1.774415
v 0.579569 4.001399 1.649456
v 0.579569 2.349018 -10.296394
v 0.579569 4.001399 -11.043101
v -0.579569 3.175208 2.024334
v -0.579569 3.175208 -10.607267
v 0.579569 3.175208 -10.607267
v 0.579569 3.175208 2.024334
vt 0.500000 0.000000
vt 0.625000 0.000000
vt 0.625000 0.250000
vt 0.500000 0.250000
vt 0.625000 0.500000
vt 0.500000 0.500000
vt 0.625000 0.750000
vt 0.500000 0.750000
vt 0.625000 1.000000
vt 0.500000 1.000000
vt 0.125000 0.500000
vt 0.375000 0.500000
vt 0.375000 0.750000
vt 0.125000 0.750000
vt 0.875000 0.500000
vt 0.875000 0.750000
vt 0.375000 1.000000
vt 0.375000 0.250000
vt 0.375000 0.000000
vn -1.0000 0.0000 0.0000
vn 0.0000 -0.4666 -0.8845
vn 1.0000 0.0000 0.0000
vn 0.0000 0.4132 0.9106
vn 0.0000 -1.0000 0.0000
vn 0.0000 1.0000 0.0000
vn 0.0000 -0.2895 0.9572
vn 0.0000 -0.3522 -0.9359
usemtl Material
s off
f 61/66/14 54/67/14 56/68/14 62/69/14
f 62/69/15 56/68/15 60/70/15 63/71/15
f 63/71/16 60/70/16 58/72/16 64/73/16
f 64/73/17 58/72/17 54/74/17 61/75/17
f 55/76/18 59/77/18 57/78/18 53/79/18
f 60/70/19 56/80/19 54/81/19 58/72/19
f 57/78/20 64/73/20 61/75/20 53/82/20
f 59/77/16 63/71/16 64/73/16 57/78/16
f 55/83/21 62/69/21 63/71/21 59/77/21
f 53/84/14 61/66/14 62/69/14 55/83/14
o Cylinder
v 0.000000 3.763782 -11.235736
v 0.000000 3.763782 -10.435737
v 0.078036 3.756096 -11.235736
v 0.078036 3.756096 -10.435737
v 0.153073 3.733334 -11.235736
v 0.153073 3.733334 -10.435737
v 0.222228 3.696370 -11.235736
v 0.222228 3.696369 -10.435737
v 0.282843 3.646625 -11.235736
v 0.282843 3.646624 -10.435737
v 0.332588 3.586010 -11.235736
v 0.332588 3.586010 -10.435737
v 0.369552 3.516855 -11.235736
v 0.369552 3.516855 -10.435737
v 0.392314 3.441818 -11.235736
v 0.392314 3.441818 -10.435737
v 0.400000 3.363782 -11.235736
v 0.400000 3.363782 -10.435737
v 0.392314 3.285746 -11.235736
v 0.392314 3.285746 -10.435737
v 0.369552 3.210708 -11.235736
v 0.369552 3.210708 -10.435737
v 0.332588 3.141554 -11.235736
v 0.332588 3.141554 -10.435737
v 0.282843 3.080939 -11.235736
v 0.282843 3.080939 -10.435737
v 0.222228 3.031194 -11.235736
v 0.222228 3.031194 -10.435737
v 0.153073 2.994230 -11.235736
v 0.153073 2.994230 -10.435737
v 0.078036 2.971467 -11.235736
v 0.078036 2.971467 -10.435737
v -0.000000 2.963782 -11.235736
v -0.000000 2.963782 -10.435737
v -0.078036 2.971468 -11.235736
v -0.078036 2.971467 -10.435737
v -0.153074 2.994230 -11.235736
v -0.153074 2.994230 -10.435737
v -0.222228 3.031194 -11.235736
v -0.222228 3.031194 -10.435737
v -0.282843 3.080939 -11.235736
v -0.282843 3.080939 -10.435737
v -0.332588 3.141554 -11.235736
v -0.332588 3.141554 -10.435737
v -0.369552 3.210709 -11.235736
v -0.369552 3.210709 -10.435737
v -0.392314 3.285746 -11.235736
v -0.392314 3.285746 -10.435737
v -0.400000 3.363782 -11.235736
v -0.400000 3.363782 -10.435737
v -0.392314 3.441818 -11.235736
v -0.392314 3.441818 -10.435737
v -0.369552 3.516855 -11.235736
v -0.369552 3.516855 -10.435737
v -0.332588 3.586010 -11.235736
v -0.332588 3.586010 -10.435737
v -0.282842 3.646625 -11.235736
v -0.282842 3.646625 -10.435737
v -0.222228 3.696370 -11.235736
v -0.222228 3.696370 -10.435737
v -0.153073 3.733334 -11.235736
v -0.153073 3.733334 -10.435737
v -0.078036 3.756096 -11.235736
v -0.078036 3.756096 -10.435737
vt 1.000000 0.500000
vt 1.000000 1.000000
vt 0.968750 1.000000
vt 0.968750 0.500000
vt 0.937500 1.000000
vt 0.937500 0.500000
vt 0.906250 1.000000
vt 0.906250 0.500000
vt 0.875000 1.000000
vt 0.875000 0.500000
vt 0.843750 1.000000
vt 0.843750 0.500000
vt 0.812500 1.000000
vt 0.812500 0.500000
vt 0.781250 1.000000
vt 0.781250 0.500000
vt 0.750000 1.000000
vt 0.750000 0.500000
vt 0.718750 1.000000
vt 0.718750 0.500000
vt 0.687500 1.000000
vt 0.687500 0.500000
vt 0.656250 1.000000
vt 0.656250 0.500000
vt 0.625000 1.000000
vt 0.625000 0.500000
vt 0.593750 1.000000
vt 0.593750 0.500000
vt 0.562500 1.000000
vt 0.562500 0.500000
vt 0.531250 1.000000
vt 0.531250 0.500000
vt 0.500000 1.000000
vt 0.500000 0.500000
vt 0.468750 1.000000
vt 0.468750 0.500000
vt 0.437500 1.000000
vt 0.437500 0.500000
vt 0.406250 1.000000
vt 0.406250 0.500000
vt 0.375000 1.000000
vt 0.375000 0.500000
vt 0.343750 1.000000
vt 0.343750 0.500000
vt 0.312500 1.000000
vt 0.312500 0.500000
vt 0.281250 1.000000
vt 0.281250 0.500000
vt 0.250000 1.000000
vt 0.250000 0.500000
vt 0.218750 1.000000
vt 0.218750 0.500000
vt 0.187500 1.000000
vt 0.187500 0.500000
vt 0.156250 1.000000
vt 0.156250 0.500000
vt 0.125000 1.000000
vt 0.125000 0.500000
vt 0.093750 1.000000
vt 0.093750 0.500000
vt 0.062500 1.000000
vt 0.062500 0.500000
vt 0.296822 0.485388
vt 0.250000 0.490000
vt 0.203179 0.485389
vt 0.158156 0.471731
vt 0.116663 0.449553
vt 0.080295 0.419706
vt 0.050447 0.383337
vt 0.028269 0.341844
vt 0.014612 0.296822
vt 0.010000 0.250000
vt 0.014611 0.203179
vt 0.028269 0.158156
vt 0.050447 0.116663
vt 0.080294 0.080294
vt 0.116663 0.050447
vt 0.158156 0.028269
vt 0.203178 0.014612
vt 0.250000 0.010000
vt 0.296822 0.014612
vt 0.341844 0.028269
vt 0.383337 0.050447
vt 0.419706 0.080294
vt 0.449553 0.116663
vt 0.471731 0.158156
vt 0.485388 0.203178
vt 0.490000 0.250000
vt 0.485388 0.296822
vt 0.471731 0.341844
vt 0.449553 0.383337
vt 0.419706 0.419706
vt 0.383337 0.449553
vt 0.341844 0.471731
vt 0.031250 1.000000
vt 0.031250 0.500000
vt 0.000000 1.000000
vt 0.000000 0.500000
vt 0.750000 0.490000
vt 0.796822 0.485388
vt 0.841844 0.471731
vt 0.883337 0.449553
vt 0.919706 0.419706
vt 0.949553 0.383337
vt 0.971731 0.341844
vt 0.985388 0.296822
vt 0.990000 0.250000
vt 0.985388 0.203178
vt 0.971731 0.158156
vt 0.949553 0.116663
vt 0.919706 0.080294
vt 0.883337 0.050447
vt 0.841844 0.028269
vt 0.796822 0.014612
vt 0.750000 0.010000
vt 0.703178 0.014612
vt 0.658156 0.028269
vt 0.616663 0.050447
vt 0.580294 0.080294
vt 0.550447 0.116663
vt 0.528269 0.158156
vt 0.514611 0.203179
vt 0.510000 0.250000
vt 0.514612 0.296822
vt 0.528269 0.341844
vt 0.550447 0.383337
vt 0.580295 0.419706
vt 0.616663 0.449553
vt 0.658156 0.471731
vt 0.703179 0.485389
vn 0.0980 0.9952 0.0000
vn 0.2903 0.9569 0.0000
vn 0.4714 0.8819 0.0000
vn 0.6344 0.7730 0.0000
vn 0.7730 0.6344 0.0000
vn 0.8819 0.4714 0.0000
vn 0.9569 0.2903 0.0000
vn 0.9952 0.0980 0.0000
vn 0.9952 -0.0980 0.0000
vn 0.9569 -0.2903 0.0000
vn 0.8819 -0.4714 0.0000
vn 0.7730 -0.6344 -0.0000
vn 0.6344 -0.7730 -0.0000
vn 0.4714 -0.8819 0.0000
vn 0.2903 -0.9569 0.0000
vn 0.0980 -0.9952 0.0000
vn -0.0980 -0.9952 0.0000
vn -0.2903 -0.9569 -0.0000
vn -0.4714 -0.8819 0.0000
vn -0.6344 -0.7730 0.0000
vn -0.7730 -0.6344 0.0000
vn -0.8819 -0.4714 0.0000
vn -0.9569 -0.2903 0.0000
vn -0.9952 -0.0980 0.0000
vn -0.9952 0.0980 0.0000
vn -0.9569 0.2903 0.0000
vn -0.8819 0.4714 0.0000
vn -0.7730 0.6344 0.0000
vn -0.6344 0.7730 0.0000
vn -0.4714 0.8819 0.0000
vn -0.0000 0.0000 1.0000
vn -0.2903 0.9569 0.0000
vn -0.0980 0.9952 0.0000
vn -0.0000 0.0000 -1.0000
usemtl Material
s off
f 65/85/22 66/86/22 68/87/22 67/88/22
f 67/88/23 68/87/23 70/89/23 69/90/23
f 69/90/24 70/89/24 72/91/24 71/92/24
f 71/92/25 72/91/25 74/93/25 73/94/25
f 73/94/26 74/93/26 76/95/26 75/96/26
f 75/96/27 76/95/27 78/97/27 77/98/27
f 77/98/28 78/97/28 80/99/28 79/100/28
f 79/100/29 80/99/29 82/101/29 81/102/29
f 81/102/30 82/101/30 84/103/30 83/104/30
f 83/104/31 84/103/31 86/105/31 85/106/31
f 85/106/32 86/105/32 88/107/32 87/108/32
f 87/108/33 88/107/33 90/109/33 89/110/33
f 89/110/34 90/109/34 92/111/34 91/112/34
f 91/112/35 92/111/35 94/113/35 93/114/35
f 93/114/36 94/113/36 96/115/36 95/116/36
f 95/116/37 96/115/37 98/117/37 97/118/37
f 97/118/38 98/117/38 100/119/38 99/120/38
f 99/120/39 100/119/39 102/121/39 101/122/39
f 101/122/40 102/121/40 104/123/40 103/124/40
f 103/124/41 104/123/41 106/125/41 105/126/41
f 105/126/42 106/125/42 108/127/42 107/128/42
f 107/128/43 108/127/43 110/129/43 109/130/43
f 109/130/44 110/129/44 112/131/44 111/132/44
f 111/132/45 112/131/45 114/133/45 113/134/45
f 113/134/46 114/133/46 116/135/46 115/136/46
f 115/136/47 116/135/47 118/137/47 117/138/47
f 117/138/48 118/137/48 120/139/48 119/140/48
f 119/140/49 120/139/49 122/141/49 121/142/49
f 121/142/50 122/141/50 124/143/50 123/144/50
f 123/144/51 124/143/51 126/145/51 125/146/51
f 68/147/52 66/148/52 128/149/52 126/150/52 124/151/52 122/152/52 120/153/52 118/154/52 116/155/52 114/156/52 112/157/52 110/158/52 108/159/52 106/160/52 104/161/52 102/162/52 100/163/52 98/164/52 96/165/52 94/166/52 92/167/52 90/168/52 88/169/52 86/170/52 84/171/52 82/172/52 80/173/52 78/174/52 76/175/52 74/176/52 72/177/52 70/178/52
f 125/146/53 126/145/53 128/179/53 127/180/53
f 127/180/54 128/179/54 66/181/54 65/182/54
f 65/183/55 67/184/55 69/185/55 71/186/55 73/187/55 75/188/55 77/189/55 79/190/55 81/191/55 83/192/55 85/193/55 87/194/55 89/195/55 91/196/55 93/197/55 95/198/55 97/199/55 99/200/55 101/201/55 103/202/55 105/203/55 107/204/55 109/205/55 111/206/55 113/207/55 115/208/55 117/209/55 119/210/55 121/211/55 123/212/55 125/213/55 127/214/55
